<?xml version="1.0" standalone="no"?><svg xmlns="http://www.w3.org/2000/svg" viewBox="0 0 1440 320"><path fill="#06283D" fill-opacity="1" d="M0,192L6.2,165.3C12.3,139,25,85,37,85.3C49.2,85,62,139,74,181.3C86.2,224,98,256,111,250.7C123.1,245,135,203,148,202.7C160,203,172,245,185,218.7C196.9,192,209,96,222,53.3C233.8,11,246,21,258,26.7C270.8,32,283,32,295,64C307.7,96,320,160,332,192C344.6,224,357,224,369,202.7C381.5,181,394,139,406,144C418.5,149,431,203,443,229.3C455.4,256,468,256,480,224C492.3,192,505,128,517,96C529.2,64,542,64,554,101.3C566.2,139,578,213,591,208C603.1,203,615,117,628,80C640,43,652,53,665,74.7C676.9,96,689,128,702,122.7C713.8,117,726,75,738,96C750.8,117,763,203,775,240C787.7,277,800,267,812,229.3C824.6,192,837,128,849,85.3C861.5,43,874,21,886,64C898.5,107,911,213,923,234.7C935.4,256,948,192,960,154.7C972.3,117,985,107,997,85.3C1009.2,64,1022,32,1034,58.7C1046.2,85,1058,171,1071,192C1083.1,213,1095,171,1108,160C1120,149,1132,171,1145,154.7C1156.9,139,1169,85,1182,74.7C1193.8,64,1206,96,1218,112C1230.8,128,1243,128,1255,144C1267.7,160,1280,192,1292,181.3C1304.6,171,1317,117,1329,128C1341.5,139,1354,213,1366,245.3C1378.5,277,1391,267,1403,266.7C1415.4,267,1428,277,1434,282.7L1440,288L1440,320L1433.8,320C1427.7,320,1415,320,1403,320C1390.8,320,1378,320,1366,320C1353.8,320,1342,320,1329,320C1316.9,320,1305,320,1292,320C1280,320,1268,320,1255,320C1243.1,320,1231,320,1218,320C1206.2,320,1194,320,1182,320C1169.2,320,1157,320,1145,320C1132.3,320,1120,320,1108,320C1095.4,320,1083,320,1071,320C1058.5,320,1046,320,1034,320C1021.5,320,1009,320,997,320C984.6,320,972,320,960,320C947.7,320,935,320,923,320C910.8,320,898,320,886,320C873.8,320,862,320,849,320C836.9,320,825,320,812,320C800,320,788,320,775,320C763.1,320,751,320,738,320C726.2,320,714,320,702,320C689.2,320,677,320,665,320C652.3,320,640,320,628,320C615.4,320,603,320,591,320C578.5,320,566,320,554,320C541.5,320,529,320,517,320C504.6,320,492,320,480,320C467.7,320,455,320,443,320C430.8,320,418,320,406,320C393.8,320,382,320,369,320C356.9,320,345,320,332,320C320,320,308,320,295,320C283.1,320,271,320,258,320C246.2,320,234,320,222,320C209.2,320,197,320,185,320C172.3,320,160,320,148,320C135.4,320,123,320,111,320C98.5,320,86,320,74,320C61.5,320,49,320,37,320C24.6,320,12,320,6,320L0,320Z" data-darkreader-inline-fill="" style="--darkreader-inline-fill:#052031;"></path></svg>